<svg width="37" height="38" viewBox="0 0 37 38" fill="none" xmlns="http://www.w3.org/2000/svg">
<path d="M32.2875 31.2929C16.6306 38.7445 6.91365 32.5101 0.693581 28.7232C0.308789 28.4845 -0.345488 28.7791 0.222179 29.431C2.29432 31.9437 9.08544 38 17.9499 38C26.8203 38 32.0974 33.1597 32.7576 32.3153C33.4132 31.4782 32.9501 31.0163 32.2875 31.2929ZM36.6847 28.8645C36.2643 28.3171 34.1281 28.2149 32.7838 28.3801C31.4372 28.5404 29.4162 29.3633 29.5919 29.8573C29.6821 30.0425 29.8662 29.9594 30.7912 29.8763C31.7187 29.7837 34.3168 29.4559 34.8583 30.1637C35.4022 30.8762 34.0295 34.2713 33.7789 34.8188C33.5367 35.3662 33.8715 35.5075 34.3264 35.1429C34.7752 34.7783 35.5874 33.8343 36.1325 32.4983C36.674 31.1552 37.0041 29.2813 36.6847 28.8645Z" fill="white"/>
<path d="M28.3254 19.4643V6.98604C28.3254 4.84263 26.2521 0 18.8007 0C11.3505 0 7.38675 4.65623 7.38675 8.85043L13.6139 9.40742C13.6139 9.40742 15.0008 5.21556 18.22 5.21556C21.4392 5.21556 21.2184 7.82334 21.2184 8.38737V11.0985C17.0943 11.2374 6.85352 12.4154 6.85352 21.0509C6.85352 30.3371 18.5751 30.7266 22.4189 24.725C22.5674 24.9684 22.736 25.2071 22.9473 25.4304C24.3617 26.9172 26.2485 28.689 26.2485 28.689L31.0554 23.939C31.0579 23.9377 28.3254 21.7929 28.3254 19.4643ZM14.0817 19.9025C14.0817 15.9137 18.3554 15.105 21.2196 15.01V18.4431C21.2184 25.2439 14.0817 24.2143 14.0817 19.9025Z" fill="white"/>
</svg>
