<svg width="36" height="43" viewBox="0 0 36 43" fill="none" xmlns="http://www.w3.org/2000/svg">
<path d="M25.8049 0C25.9049 0 26.005 0 26.1108 0C26.3563 3.03246 25.1987 5.2983 23.7918 6.93915C22.4114 8.56867 20.5211 10.1491 17.4638 9.9093C17.2599 6.92027 18.4193 4.82247 19.8243 3.1854C21.1273 1.65973 23.5161 0.302113 25.8049 0Z" fill="white"/>
<path d="M35.06 31.5632C35.06 31.5934 35.06 31.6198 35.06 31.6481C34.2008 34.2501 32.9752 36.4801 31.4796 38.5495C30.1143 40.4283 28.4412 42.9566 25.4537 42.9566C22.8723 42.9566 21.1576 41.2969 18.512 41.2516C15.7134 41.2062 14.1743 42.6394 11.6155 43C11.3228 43 11.0301 43 10.7431 43C8.86414 42.7281 7.34776 41.2402 6.24304 39.8996C2.98556 35.9381 0.468323 30.8211 0 24.2728C0 23.6308 0 22.9907 0 22.3487C0.198282 17.6622 2.47569 13.8518 5.50279 12.0052C7.10038 11.0233 9.29658 10.1868 11.7421 10.5607C12.7901 10.7231 13.8608 11.0818 14.7994 11.4368C15.6888 11.7786 16.8011 12.3847 17.8548 12.3526C18.5686 12.3318 19.2787 11.9598 19.9981 11.6974C22.1056 10.9364 24.1715 10.0641 26.8946 10.4738C30.1672 10.9685 32.4899 12.4224 33.9251 14.6656C31.1567 16.4273 28.968 19.0821 29.3419 23.6157C29.6743 27.7339 32.0688 30.1432 35.06 31.5632Z" fill="white"/>
</svg>
