<svg width="348" height="611" viewBox="0 0 348 611" fill="none" xmlns="http://www.w3.org/2000/svg">
<path d="M319.538 136.288C308.948 136.288 300.363 126.431 300.363 114.272C300.363 102.112 308.948 92.2554 319.538 92.2554C330.129 92.2554 338.714 102.112 338.714 114.272C338.714 126.431 330.129 136.288 319.538 136.288Z" fill="#2A2A2A"/>
<path d="M338.003 96.5166C327.413 96.5166 318.827 86.6596 318.827 74.5002C318.827 62.3409 327.413 52.4838 338.003 52.4838C348.593 52.4838 357.179 62.3409 357.179 74.5002C357.179 86.6596 348.593 96.5166 338.003 96.5166Z" fill="#2A2A2A"/>
<path d="M242.197 150.826L234.26 92.2955L224.338 175.91L218.385 115.289L206.479 171.729L214.416 67.2112L246.166 79.7534L242.197 150.826Z" fill="#2A2A2A"/>
<path d="M238.033 60.6747C227.787 34.4473 210.177 7.57771 184.54 1.70833C158.904 -4.16102 128.982 5.71714 109.363 21.806C89.7429 37.895 68.5037 78.1865 68.5037 78.1865C68.5037 78.1865 103.862 56.2353 122.89 49.7985C141.919 43.3617 168.564 29.4139 192.702 39.8357C216.839 50.2573 250.91 125.801 250.91 125.801C250.91 125.801 248.279 86.9022 238.033 60.6747Z" fill="#2A2A2A"/>
<path d="M250.91 125.801C235.882 92.6118 222.737 55.244 194.732 33.2442C163.737 19.9684 138.907 22.9414 119.83 41.7332L68.5037 78.1866C106.061 69.6886 139.753 48.7086 182.577 57.2164C213.416 63.2007 228.332 95.9986 250.91 125.801Z" fill="#2A2A2A"/>
<path d="M112.187 89.5136C118.933 57.5663 130.526 24.8367 147.404 17.6873C164.282 10.538 183.982 22.5704 196.898 42.1681C209.815 61.7658 223.798 110.844 223.798 110.844C223.798 110.844 200.52 84.1059 187.992 76.2653C175.464 68.4247 157.922 51.4352 142.031 64.1297C126.14 76.8243 103.71 168.842 103.71 168.842C103.71 168.842 105.442 121.461 112.187 89.5136Z" fill="#2A2A2A"/>
<path d="M103.71 168.843C113.603 128.416 122.258 82.8985 140.695 56.1008C161.1 39.9298 177.447 43.5512 190.007 66.4411L223.798 110.845C199.072 100.493 176.89 74.9378 148.697 85.301C128.394 92.5905 118.574 132.541 103.71 168.843Z" fill="#2A2A2A"/>
<path d="M453.025 608.993C449.004 581.725 421.278 550.546 413.428 524.244C359.156 373.673 320.221 215.801 223.798 87.5824L205.235 88.7997C308.351 257.432 334.613 437.061 348.893 610.538L453.025 608.993Z" fill="#2A2A2A"/>
<path d="M279.801 62.2997C306.632 57.1762 340.133 59.0378 365.871 81.2257C391.609 103.414 410.06 139.111 415.499 168.149C420.938 197.187 410.98 242.023 410.98 242.023C410.98 242.023 396.297 193.819 384.671 171.026C373.044 148.234 360.182 113.427 332.558 95.4046C304.933 77.3821 223.797 87.5824 223.797 87.5824C223.797 87.5824 252.969 67.4232 279.801 62.2997Z" fill="#2A2A2A"/>
<path d="M226.257 178.329L236.41 121.66L249.102 202.616L256.717 143.923L271.947 198.568L261.794 97.373L221.18 109.516L226.257 178.329Z" fill="#2A2A2A"/>
<path d="M223.797 87.5826C259.493 83.1604 296.493 74.4088 335.408 89.5137C370.807 112.719 389.737 139.281 392.845 169.361L410.979 242.023C385.118 199.502 371.171 153.531 329.076 115.709C298.86 88.3873 263.53 92.6924 223.797 87.5826Z" fill="#2A2A2A"/>
<path d="M167.795 62.2997C140.964 57.1762 107.462 59.0378 81.7245 81.2257C55.9868 103.414 37.5357 139.111 32.0964 168.149C26.657 197.187 36.6155 242.023 36.6155 242.023C36.6155 242.023 51.298 193.819 62.9245 171.026C74.5511 148.234 87.4131 113.427 115.038 95.4046C142.662 77.3821 223.798 87.5824 223.798 87.5824C223.798 87.5824 194.626 67.4232 167.795 62.2997Z" fill="#2A2A2A"/>
<path d="M223.798 87.5826C188.102 83.1604 151.102 74.4088 112.187 89.5137C76.7885 112.719 57.8584 139.281 54.7496 169.361L36.6155 242.023C62.4774 199.502 76.4245 153.531 118.519 115.709C148.735 88.3873 184.065 92.6924 223.798 87.5826Z" fill="#2A2A2A"/>
<path d="M355.937 208.032C368.867 191.843 377.133 169.963 363.68 148.967C350.227 127.971 321.701 108.928 295.629 99.5802C269.556 90.2324 223.797 87.5824 223.797 87.5824C223.797 87.5824 265.384 106.729 283.643 118.788C301.903 130.848 331.254 146.124 340.168 167.491C349.081 188.858 315.03 238.882 315.03 238.882C315.03 238.882 343.007 224.222 355.937 208.032Z" fill="#2A2A2A"/>
<path d="M315.032 238.882C329.95 216.86 349.39 194.875 346.644 166.849C335.116 139.447 315.449 121.939 287.684 113.877L223.798 87.5824C256.613 112.759 296.289 130.982 319.755 165.631C336.763 190.536 322.066 212.347 315.032 238.882Z" fill="#2A2A2A"/>
<path d="M177.478 47.2086C153.268 34.5574 120.656 26.6683 89.6087 40.4813C58.5614 54.2943 30.5905 83.1453 16.9998 109.377C3.40915 135.608 -0.00012207 181.41 -0.00012207 181.41C-0.00012207 181.41 27.9733 139.496 45.6848 121.031C63.3962 102.565 85.7589 72.9538 117.41 63.6736C149.061 54.3933 223.798 87.5823 223.798 87.5823C223.798 87.5823 201.688 59.8598 177.478 47.2086Z" fill="#2A2A2A"/>
<path d="M223.798 87.5824C190.898 73.0435 158 53.983 116.382 57.2106C75.7911 69.2087 49.9989 89.1749 38.3388 117.076L-0.00012207 181.41C37.0361 148.165 63.6606 108.178 114.882 84.1182C151.698 66.6829 184.282 81.0043 223.798 87.5824Z" fill="#2A2A2A"/>
<path d="M258.475 34.524C278.724 15.689 308.304 -0.582052 341.827 5.13055C375.351 10.8432 409.679 32.3037 429.43 54.8748C449.181 77.446 464 122.108 464 122.108C464 122.108 426.384 87.6596 404.598 73.8749C382.812 60.0903 353.721 36.4246 320.753 35.375C287.785 34.3255 223.798 86.6375 223.798 86.6375C223.798 86.6375 238.225 53.3591 258.475 34.524Z" fill="#2A2A2A"/>
<path d="M223.798 86.6377C251.983 63.6803 279.03 36.2272 320.122 28.683C362.426 30.1252 392.411 43.314 410.713 68.0447L464 122.108C419.793 98.6208 383.967 65.7397 328.342 55.0508C288.323 47.2271 260.389 69.8864 223.798 86.6377Z" fill="#2A2A2A"/>
<path d="M205.416 129.057C196.699 129.057 189.631 120.502 189.631 109.949C189.631 99.3957 196.699 90.8407 205.416 90.8407C214.134 90.8407 221.201 99.3957 221.201 109.949C221.201 120.502 214.134 129.057 205.416 129.057Z" fill="#2A2A2A"/>
<path d="M162.095 183.929C146.677 171.229 132.956 153.953 136.31 137.112C139.664 120.271 155.317 104.795 172.326 97.0501C189.334 89.3051 223.798 86.6377 223.798 86.6377C223.798 86.6377 198.088 102.356 188.025 112.159C177.962 121.962 160.408 134.455 160.685 151.535C160.962 168.615 204.04 207.927 204.04 207.927C204.04 207.927 177.512 196.628 162.095 183.929Z" fill="#2A2A2A"/>
<path d="M231.923 131.173C223.205 131.173 216.138 122.619 216.138 112.065C216.138 101.512 223.205 92.9574 231.923 92.9574C240.641 92.9574 247.708 101.512 247.708 112.065C247.708 122.619 240.641 131.173 231.923 131.173Z" fill="#2A2A2A"/>
<path d="M204.04 207.927C185.132 190.621 162.743 173.398 155.468 151.105C155.187 129.199 164.511 115.052 183.258 108.307L223.798 86.6377C206.887 107.037 182.345 121.999 175.833 149.807C171.043 169.797 189.709 186.939 204.04 207.927Z" fill="#2A2A2A"/>
<path d="M288.828 186.396C293.857 178.508 296.522 166.229 289.485 150.688C282.448 135.147 268.741 118.183 256.598 107.735C244.455 97.2867 223.798 87.5824 223.798 87.5824C223.798 87.5824 243.37 106.906 252.137 117.684C260.904 128.461 274.801 143.206 279.819 158.182C284.838 173.158 271.947 198.569 271.947 198.569C271.947 198.569 283.799 194.284 288.828 186.396Z" fill="#2A2A2A"/>
<path d="M271.946 198.569C277.588 187.37 285.261 176.988 282.692 158.917C276.213 139.694 266.555 125.25 253.714 115.311L223.797 87.5824C239.72 109.149 258.39 127.559 270.571 153.427C279.39 172.046 273.836 183.152 271.946 198.569Z" fill="#2A2A2A"/>
<path opacity="0.553" d="M348.892 610.538C338.955 506.816 328.468 403.204 300.781 303.032L378.838 553.104L388.956 609.479L348.892 610.538Z" fill="#2A2A2A"/>
<g filter="url(#filter0_f_1820_178)">
<path d="M222.696 99.8408C209.733 99.8408 199.225 93.5323 199.225 85.7502C199.225 77.9682 209.733 71.6595 222.696 71.6595C235.658 71.6595 246.166 77.9682 246.166 85.7502C246.166 93.5323 235.658 99.8408 222.696 99.8408Z" fill="#2A2A2A"/>
</g>
<defs>
<filter id="filter0_f_1820_178" x="188.909" y="61.3433" width="67.5729" height="48.8137" filterUnits="userSpaceOnUse" color-interpolation-filters="sRGB">
<feFlood flood-opacity="0" result="BackgroundImageFix"/>
<feBlend mode="normal" in="SourceGraphic" in2="BackgroundImageFix" result="shape"/>
<feGaussianBlur stdDeviation="5.15811" result="effect1_foregroundBlur_1820_178"/>
</filter>
</defs>
</svg>
