<svg width="16" height="19" viewBox="0 0 16 19" fill="none" xmlns="http://www.w3.org/2000/svg">
<path d="M15.5795 14.7614C15.3102 15.3789 14.9916 15.9472 14.6223 16.4698C14.1191 17.1821 13.707 17.6752 13.3894 17.949C12.8971 18.3985 12.3696 18.6286 11.8048 18.6417C11.3993 18.6417 10.9103 18.5272 10.3411 18.2948C9.77001 18.0636 9.24519 17.949 8.76531 17.949C8.26203 17.949 7.72224 18.0636 7.14491 18.2948C6.56667 18.5272 6.10086 18.6483 5.74471 18.6603C5.20308 18.6832 4.6632 18.4465 4.12432 17.949C3.78035 17.6512 3.35015 17.1407 2.83476 16.4174C2.28181 15.645 1.82722 14.7494 1.47106 13.7283C1.08964 12.6255 0.898438 11.5575 0.898438 10.5235C0.898438 9.33914 1.15624 8.31763 1.6726 7.4616C2.07842 6.77402 2.61829 6.23162 3.294 5.83345C3.96968 5.43527 4.69979 5.23236 5.48604 5.21939C5.91625 5.21939 6.48041 5.35149 7.1815 5.61113C7.88061 5.87164 8.32949 6.00374 8.5263 6.00374C8.67344 6.00374 9.17212 5.84926 10.0175 5.54131C10.8169 5.25571 11.4916 5.13744 12.0444 5.18404C13.5421 5.30404 14.6674 5.89017 15.4157 6.94616C14.0762 7.7519 13.4136 8.88042 13.4268 10.3281C13.4388 11.4558 13.8509 12.3942 14.6608 13.1393C15.0278 13.4851 15.4377 13.7524 15.8937 13.9422C15.7948 14.2269 15.6904 14.4996 15.5795 14.7614ZM12.1444 1.34233C12.1444 2.22618 11.8191 3.05143 11.1708 3.81528C10.3884 4.72335 9.44201 5.24806 8.41576 5.16527C8.40201 5.05415 8.39511 4.9423 8.39509 4.83035C8.39509 3.98186 8.76717 3.07379 9.42794 2.33134C9.75782 1.95541 10.1774 1.64285 10.6862 1.3935C11.1938 1.14787 11.674 1.01204 12.1257 0.98877C12.1389 1.10692 12.1444 1.2251 12.1444 1.34233Z" fill="white"/>
</svg>
