<svg width="17" height="19" viewBox="0 0 17 19" fill="none" xmlns="http://www.w3.org/2000/svg">
<path d="M0.456358 1.03434C0.23203 1.30348 0.118588 1.64794 0.139081 1.99771V17.1924C0.119747 17.542 0.233054 17.886 0.456358 18.1557L0.508275 18.2077L9.01706 9.6931V9.4912L0.508275 0.982422L0.456358 1.03434Z" fill="url(#paint0_linear_2103_187)"/>
<path d="M11.8548 12.5312L9.0166 9.69301V9.49111L11.8548 6.65869L11.9182 6.6933L15.2814 8.60273C16.2447 9.14499 16.2447 10.0391 15.2814 10.5872L11.9182 12.4966L11.8548 12.5312Z" fill="url(#paint1_linear_2103_187)"/>
<path d="M11.9194 12.4966L9.03504 9.6123L0.457031 18.1557C0.654754 18.3183 0.90092 18.4104 1.15678 18.4178C1.41264 18.4251 1.66367 18.3471 1.87035 18.1961L11.9021 12.4966" fill="url(#paint2_linear_2103_187)"/>
<path d="M11.9194 6.69324L1.87035 0.988031C1.66589 0.830836 1.41319 0.749501 1.15543 0.757918C0.897656 0.766335 0.650804 0.863981 0.457031 1.03418L9.01773 9.59488L11.9194 6.69324Z" fill="url(#paint3_linear_2103_187)"/>
<path opacity="0.1" d="M11.8547 12.4326L1.86911 18.0974C1.66992 18.2459 1.42815 18.326 1.17975 18.326C0.931348 18.326 0.68958 18.2459 0.490395 18.0974L0.438477 18.1494L0.490395 18.2013C0.68958 18.3497 0.931348 18.4299 1.17975 18.4299C1.42815 18.4299 1.66992 18.3497 1.86911 18.2013L11.9008 12.5018L11.8547 12.4326Z" fill="black"/>
<path opacity="0.07" d="M0.456186 18.0639C0.232508 17.7921 0.119248 17.4461 0.138909 17.0947V17.1928C0.119575 17.5424 0.232882 17.8865 0.456186 18.1562L0.508104 18.1042L0.456186 18.0639Z" fill="black"/>
<path opacity="0.07" d="M15.2821 10.4832L11.8555 12.433L11.9189 12.4965L15.2821 10.564C15.4793 10.4772 15.65 10.3397 15.7767 10.1654C15.9034 9.99103 15.9815 9.78619 16.0031 9.57178C15.9638 9.76998 15.8779 9.95598 15.7525 10.1144C15.6271 10.2729 15.4659 10.3993 15.2821 10.4832Z" fill="black"/>
<path opacity="0.3" d="M1.86927 1.09188L15.2814 8.70075C15.4635 8.78259 15.6236 8.90621 15.7489 9.06157C15.8742 9.21693 15.9611 9.39965 16.0025 9.59489C15.9821 9.38012 15.9044 9.17476 15.7776 9.00024C15.6507 8.82572 15.4794 8.68842 15.2814 8.60268L1.86927 0.988046C0.92321 0.445792 0.138672 0.895748 0.138672 1.99756V2.09563C0.138672 0.999583 0.92321 0.543859 1.86927 1.09188Z" fill="white"/>
<defs>
<linearGradient id="paint0_linear_2103_187" x1="8.26713" y1="1.83618" x2="-3.26443" y2="13.3677" gradientUnits="userSpaceOnUse">
<stop stop-color="#008EFF"/>
<stop offset="0.01" stop-color="#008FFF"/>
<stop offset="0.26" stop-color="#00ACFF"/>
<stop offset="0.51" stop-color="#00C0FF"/>
<stop offset="0.76" stop-color="#00CDFF"/>
<stop offset="1" stop-color="#00D1FF"/>
</linearGradient>
<linearGradient id="paint1_linear_2103_187" x1="15.3967" y1="9.59494" x2="-1.22855" y2="9.59494" gradientUnits="userSpaceOnUse">
<stop stop-color="#FFD800"/>
<stop offset="1" stop-color="#FF8A00"/>
</linearGradient>
<linearGradient id="paint2_linear_2103_187" x1="10.3445" y1="11.1698" x2="-5.28856" y2="26.8029" gradientUnits="userSpaceOnUse">
<stop stop-color="#FF3A44"/>
<stop offset="1" stop-color="#B11162"/>
</linearGradient>
<linearGradient id="paint3_linear_2103_187" x1="-1.70045" y1="-4.02494" x2="5.2854" y2="2.95515" gradientUnits="userSpaceOnUse">
<stop stop-color="#328E71"/>
<stop offset="0.07" stop-color="#2D9571"/>
<stop offset="0.48" stop-color="#15BD74"/>
<stop offset="0.8" stop-color="#06D575"/>
<stop offset="1" stop-color="#00DE76"/>
</linearGradient>
</defs>
</svg>
