<svg width="38" height="38" viewBox="0 0 38 38" fill="none" xmlns="http://www.w3.org/2000/svg">
<path d="M8.33932 15.4605C9.81606 10.9862 14.0213 7.77274 19.0022 7.77274C21.6798 7.77274 24.0982 8.72275 25.9984 10.2773L31.5262 4.75001C28.1577 1.81364 23.8391 0 19.0022 0C11.5124 0 5.06396 4.27231 1.96387 10.5292L8.33932 15.4605Z" fill="#EA4335"/>
<path d="M25.3998 28.52C23.6741 29.6342 21.4812 30.2273 19.0013 30.2273C14.0395 30.2273 9.84738 27.0384 8.35552 22.5908L1.95898 27.4471C5.05522 33.715 11.5035 38 19.0013 38C23.6454 38 28.0832 36.3492 31.4067 33.2494L25.3998 28.52Z" fill="#34A853"/>
<path d="M31.4073 33.2495C34.883 30.0076 37.1401 25.1809 37.1401 19.0001C37.1401 17.8774 36.9673 16.6683 36.7082 15.5455H19.002V22.8865H29.1939C28.691 25.355 27.3411 27.267 25.4004 28.52L31.4073 33.2495Z" fill="#4A90E2"/>
<path d="M8.35604 22.5908C7.97813 21.4642 7.77349 20.2568 7.77349 19C7.77349 17.7623 7.97197 16.5724 8.33897 15.4605L1.96351 10.5292C0.691331 13.079 0 15.9527 0 19C0 22.0393 0.704305 24.9061 1.95951 27.4471L8.35604 22.5908Z" fill="#FBBC05"/>
</svg>
