<svg width="27" height="17" viewBox="0 0 27 17" fill="none" xmlns="http://www.w3.org/2000/svg">
<path d="M14.3062 9.87287L22.6041 1.57501C23.6098 0.569313 25.2401 0.569483 26.2458 1.57501C27.2513 2.5807 27.2513 4.211 26.2458 5.2167L15.3208 16.1417C14.3153 17.1474 12.6848 17.1472 11.6791 16.1417L0.754144 5.2167C-0.251381 4.211 -0.251381 2.5807 0.754144 1.57501C1.75967 0.569313 3.39014 0.569483 4.39583 1.57501L12.6937 9.87287C13.139 10.3182 13.861 10.3182 14.3062 9.87287Z" fill="#CBFFCA"/>
<path d="M13.5 10.2069C13.7917 10.2069 14.0837 10.0955 14.3063 9.87294L22.6042 1.57507C23.6097 0.569377 25.2402 0.569377 26.2459 1.57507C27.2514 2.58077 27.2514 4.21107 26.2459 5.21676L15.3209 16.1417C14.8181 16.6445 14.1591 16.896 13.5001 16.896L13.5001 10.2069H13.5Z" fill="#CBFFCA"/>
</svg>
