<svg width="27" height="17" viewBox="0 0 27 17" fill="none" xmlns="http://www.w3.org/2000/svg">
<path d="M14.3062 7.02312L22.6041 15.321C23.6098 16.3267 25.2401 16.3265 26.2458 15.321C27.2513 14.3153 27.2513 12.685 26.2458 11.6793L15.3208 0.754313C14.3153 -0.251383 12.6848 -0.251213 11.6791 0.754313L0.754144 11.6793C-0.251381 12.685 -0.251381 14.3153 0.754144 15.321C1.75967 16.3267 3.39014 16.3265 4.39583 15.321L12.6937 7.02312C13.139 6.57776 13.861 6.57776 14.3062 7.02312Z" fill="#CBFFCA"/>
<path d="M13.5 6.68908C13.7917 6.68908 14.0837 6.80046 14.3063 7.02306L22.6042 15.3209C23.6097 16.3266 25.2402 16.3266 26.2459 15.3209C27.2514 14.3152 27.2514 12.6849 26.2459 11.6792L15.3209 0.754251C14.8181 0.251447 14.1591 0 13.5001 0L13.5001 6.68908H13.5Z" fill="#CBFFCA"/>
</svg>
