<svg width="38" height="38" viewBox="0 0 38 38" fill="none" xmlns="http://www.w3.org/2000/svg">
<path d="M32.883 31.2929C17.2258 38.7445 7.50854 32.5101 1.28832 28.7232C0.903523 28.4845 0.24923 28.7791 0.81691 29.431C2.8891 31.9437 9.68039 38 18.545 38C27.4157 38 32.693 33.1597 33.3531 32.3153C34.0087 31.4782 33.5456 31.0163 32.883 31.2929ZM37.2803 28.8645C36.8599 28.3171 34.7237 28.2149 33.3793 28.3801C32.0327 28.5404 30.0116 29.3633 30.1873 29.8573C30.2776 30.0425 30.4616 29.9594 31.3867 29.8763C32.3142 29.7837 34.9124 29.4559 35.4539 30.1637C35.9978 30.8762 34.625 34.2713 34.3745 34.8188C34.1322 35.3662 34.4671 35.5075 34.9219 35.1429C35.3708 34.7783 36.183 33.8343 36.7281 32.4983C37.2696 31.1552 37.5998 29.2813 37.2803 28.8645Z" fill="#909090"/>
<path d="M28.9207 19.4643V6.98604C28.9207 4.84263 26.8473 0 19.3957 0C11.9453 0 7.98149 4.65623 7.98149 8.85044L14.2087 9.40742C14.2087 9.40742 15.5957 5.21556 18.815 5.21556C22.0343 5.21556 21.8135 7.82334 21.8135 8.38737V11.0985C17.6893 11.2374 7.44824 12.4154 7.44824 21.0509C7.44824 30.3371 19.1701 30.7266 23.014 24.725C23.1625 24.9684 23.3311 25.2071 23.5425 25.4304C24.9568 26.9172 26.8437 28.689 26.8437 28.689L31.6507 23.939C31.6532 23.9377 28.9207 21.7929 28.9207 19.4643ZM14.6766 19.9025C14.6766 15.9137 18.9504 15.105 21.8146 15.01V18.4431C21.8135 25.2439 14.6766 24.2143 14.6766 19.9025Z" fill="#909090"/>
</svg>
