<svg width="34" height="34" viewBox="0 0 34 34" fill="none" xmlns="http://www.w3.org/2000/svg">
<g clip-path="url(#clip0_1820_164)">
<path d="M19.6736 0.100342L19.6602 7.58101L19.6469 15.0617L19.0324 13.3251V13.3206L18.2354 29.974C19.019 32.1826 19.4376 33.3626 19.4421 33.367C19.4465 33.3715 19.8918 33.3982 20.4306 33.4249C22.0603 33.5051 24.0818 33.6787 25.6181 33.8702C25.9743 33.9147 26.2771 33.937 26.2993 33.9192C26.3216 33.9014 26.326 26.2871 26.3216 16.9942L26.3082 0.100342H19.6736Z" fill="#909090" stroke="#909090" stroke-width="0.29074"/>
<path d="M7.67383 0.0780614V16.9897C7.67383 26.2916 7.68273 33.9102 7.69609 33.9236C7.70945 33.937 8.28386 33.8791 8.97849 33.8034C9.67312 33.7277 10.6305 33.6297 11.1069 33.5896C11.8372 33.5273 14.0279 33.3893 14.2773 33.3848C14.353 33.3848 14.3574 33.0063 14.3663 26.2203L14.3797 19.0558L14.9096 20.5519C14.9897 20.7835 15.0165 20.8547 15.0966 21.0818L15.8936 4.43288C15.7244 3.95643 15.8135 4.20578 15.622 3.66255C14.9719 1.82355 14.4198 0.26953 14.3975 0.198286L14.353 0.0736084H7.67383V0.0780614Z" fill="#909090" stroke="#909090" stroke-width="0.29074"/>
<path d="M19.6736 0.100342L19.6602 7.58101L19.6469 15.0617L19.0324 13.3251V13.3206L18.2354 29.974C19.019 32.1826 19.4376 33.3626 19.4421 33.367C19.4465 33.3715 19.8918 33.3982 20.4306 33.4249C22.0603 33.5051 24.0818 33.6787 25.6181 33.8702C25.9743 33.9147 26.2771 33.937 26.2993 33.9192C26.3216 33.9014 26.326 26.2871 26.3216 16.9942L26.3082 0.100342H19.6736Z" fill="#909090" stroke="#909090" stroke-width="0.29074"/>
<path d="M7.67383 0.0780614V16.9897C7.67383 26.2916 7.68273 33.9102 7.69609 33.9236C7.70945 33.937 8.28386 33.8791 8.97849 33.8034C9.67312 33.7277 10.6305 33.6297 11.1069 33.5896C11.8372 33.5273 14.0279 33.3893 14.2773 33.3848C14.353 33.3848 14.3574 33.0063 14.3663 26.2203L14.3797 19.0558L14.9096 20.5519C14.9897 20.7835 15.0165 20.8547 15.0966 21.0818L15.8936 4.43288C15.7244 3.95643 15.8135 4.20578 15.622 3.66255C14.9719 1.82355 14.4198 0.26953 14.3975 0.198286L14.353 0.0736084H7.67383V0.0780614Z" fill="#909090" stroke="#909090" stroke-width="0.29074"/>
<path d="M7.67383 0.0780614V9.57138L14.3619 27.3112C14.3619 26.906 14.3619 26.6834 14.3663 26.2203L14.3797 19.0558L14.9096 20.5519C17.8484 28.8875 19.4292 33.3581 19.4381 33.367C19.4425 33.3715 19.8878 33.3982 20.4266 33.4249C22.0563 33.505 24.0779 33.6787 25.6141 33.8702C25.9703 33.9147 26.2731 33.937 26.2953 33.9192C26.3087 33.9058 26.3176 30.1744 26.3176 24.9067L19.6651 5.76871L19.6607 7.58099L19.6473 15.0616L19.0329 13.3251C18.4317 11.6286 18.031 10.4931 15.6131 3.66255C14.963 1.82355 14.4109 0.26953 14.3886 0.198286L14.3441 0.0736084H7.67383V0.0780614Z" fill="url(#paint0_radial_1820_164)"/>
<path d="M7.67383 0.0780614L14.3753 19.0691V19.0602L14.9051 20.5564C17.8484 28.8875 19.4292 33.3581 19.4381 33.367C19.4425 33.3715 19.8878 33.3982 20.4266 33.4249C22.0563 33.505 24.0779 33.6787 25.6141 33.8702C25.9658 33.9147 26.2731 33.937 26.2909 33.9192L19.6473 15.0572V15.0616L19.0329 13.3251C18.4317 11.6286 18.031 10.4931 15.6131 3.66255C14.963 1.82355 14.4109 0.26953 14.3886 0.198286L14.3441 0.0736084H11.009L7.67383 0.0780614Z" fill="#909090"/>
</g>
<defs>
<radialGradient id="paint0_radial_1820_164" cx="0" cy="0" r="1" gradientUnits="userSpaceOnUse" gradientTransform="translate(16.6836 16.8032) rotate(-19.1007) scale(1.22874 45.0103)">
<stop/>
<stop offset="1" stop-opacity="0"/>
</radialGradient>
<clipPath id="clip0_1820_164">
<rect width="34" height="34" fill="white"/>
</clipPath>
</defs>
</svg>
