<svg width="45" height="45" viewBox="0 0 45 45" fill="none" xmlns="http://www.w3.org/2000/svg">
<rect x="0.25" y="0.25" width="44.5" height="44.5" rx="9.75" stroke="white" stroke-width="0.5"/>
<path d="M23 13.1622C26.2041 13.1622 26.5837 13.1744 27.849 13.2321C29.019 13.2855 29.6544 13.481 30.0773 13.6453C30.6374 13.863 31.0371 14.123 31.457 14.5429C31.877 14.9629 32.137 15.3626 32.3547 15.9227C32.519 16.3456 32.7145 16.981 32.7679 18.1509C32.8256 19.4163 32.8378 19.7958 32.8378 22.9999C32.8378 26.2041 32.8256 26.5836 32.7679 27.849C32.7145 29.019 32.519 29.6543 32.3547 30.0772C32.137 30.6373 31.877 31.0371 31.4571 31.457C31.0371 31.8769 30.6374 32.1369 30.0773 32.3546C29.6544 32.519 29.019 32.7144 27.849 32.7678C26.5839 32.8255 26.2044 32.8378 23 32.8378C19.7956 32.8378 19.4162 32.8255 18.151 32.7678C16.981 32.7144 16.3456 32.519 15.9227 32.3546C15.3626 32.1369 14.9629 31.8769 14.543 31.457C14.1231 31.0371 13.863 30.6373 13.6453 30.0772C13.481 29.6543 13.2855 29.019 13.2321 27.849C13.1744 26.5836 13.1622 26.2041 13.1622 22.9999C13.1622 19.7958 13.1744 19.4163 13.2321 18.1509C13.2855 16.981 13.481 16.3456 13.6453 15.9227C13.863 15.3626 14.123 14.9629 14.543 14.543C14.9629 14.123 15.3626 13.863 15.9227 13.6453C16.3456 13.481 16.981 13.2855 18.151 13.2321C19.4163 13.1744 19.7959 13.1622 23 13.1622ZM23 11C19.741 11 19.3323 11.0138 18.0524 11.0722C16.7752 11.1305 15.9028 11.3333 15.1395 11.63C14.3504 11.9366 13.6812 12.3469 13.0141 13.0141C12.3469 13.6812 11.9366 14.3504 11.63 15.1395C11.3333 15.9028 11.1305 16.7751 11.0722 18.0524C11.0138 19.3323 11 19.741 11 22.9999C11 26.259 11.0138 26.6676 11.0722 27.9475C11.1305 29.2248 11.3333 30.0971 11.63 30.8604C11.9366 31.6495 12.3469 32.3187 13.0141 32.9859C13.6812 33.653 14.3504 34.0633 15.1395 34.3699C15.9028 34.6666 16.7752 34.8694 18.0524 34.9277C19.3323 34.9861 19.741 34.9999 23 34.9999C26.259 34.9999 26.6677 34.9861 27.9476 34.9277C29.2248 34.8694 30.0972 34.6666 30.8605 34.3699C31.6496 34.0633 32.3188 33.653 32.9859 32.9859C33.653 32.3187 34.0634 31.6495 34.37 30.8604C34.6667 30.0971 34.8695 29.2248 34.9278 27.9475C34.9862 26.6676 35 26.259 35 22.9999C35 19.741 34.9862 19.3323 34.9278 18.0524C34.8695 16.7751 34.6667 15.9028 34.37 15.1395C34.0634 14.3504 33.653 13.6812 32.9859 13.0141C32.3188 12.3469 31.6496 11.9366 30.8605 11.63C30.0972 11.3333 29.2248 11.1305 27.9476 11.0722C26.6677 11.0138 26.259 11 23 11Z" fill="white"/>
<path d="M23.0059 16.8434C19.6026 16.8434 16.8438 19.6022 16.8438 23.0055C16.8438 26.4088 19.6026 29.1677 23.0059 29.1677C26.4092 29.1677 29.1681 26.4088 29.1681 23.0055C29.1681 19.6022 26.4092 16.8434 23.0059 16.8434ZM23.0059 27.0055C20.7968 27.0055 19.0059 25.2147 19.0059 23.0055C19.0059 20.7964 20.7968 19.0055 23.0059 19.0055C25.2151 19.0055 27.0059 20.7964 27.0059 23.0055C27.0059 25.2147 25.2151 27.0055 23.0059 27.0055Z" fill="white"/>
<path d="M30.8507 16.5962C30.8507 17.3914 30.206 18.0361 29.4107 18.0361C28.6154 18.0361 27.9707 17.3914 27.9707 16.5962C27.9707 15.8009 28.6154 15.1561 29.4107 15.1561C30.206 15.1561 30.8507 15.8009 30.8507 16.5962Z" fill="white"/>
</svg>
