<svg width="43" height="43" viewBox="0 0 43 43" fill="none" xmlns="http://www.w3.org/2000/svg">
<path d="M29.7747 0C29.8748 0 29.9748 0 30.0806 0C30.326 3.03245 29.1686 5.29829 27.7619 6.93914C26.3816 8.56866 24.4915 10.1491 21.4345 9.90928C21.2306 6.92026 22.3899 4.82246 23.7948 3.18539C25.0976 1.65973 27.4862 0.302112 29.7747 0Z" fill="#909090"/>
<path d="M39.029 31.5631C39.029 31.5933 39.029 31.6198 39.029 31.6481C38.1699 34.25 36.9444 36.48 35.449 38.5495C34.0838 40.4282 32.4108 42.9565 29.4237 42.9565C26.8425 42.9565 25.1281 41.2968 22.4827 41.2515C19.6844 41.2062 18.1455 42.6393 15.587 43C15.2943 43 15.0016 43 14.7146 43C12.8359 42.7281 11.3196 41.2402 10.215 39.8995C6.9579 35.9381 4.44093 30.8211 3.97266 24.2728C3.97266 23.6308 3.97266 22.9907 3.97266 22.3487C4.17092 17.6622 6.44809 13.8518 9.47487 12.0051C11.0723 11.0233 13.2683 10.1868 15.7135 10.5607C16.7614 10.7231 17.832 11.0818 18.7705 11.4368C19.6598 11.7786 20.772 12.3847 21.8256 12.3526C22.5393 12.3318 23.2493 11.9598 23.9687 11.6974C26.0759 10.9364 28.1416 10.0641 30.8644 10.4738C34.1367 10.9685 36.4592 12.4224 37.8942 14.6656C35.1261 16.4273 32.9377 19.0821 33.3115 23.6157C33.6438 27.7339 36.0381 30.1432 39.029 31.5631Z" fill="#909090"/>
</svg>
