<svg width="34" height="34" viewBox="0 0 34 34" fill="none" xmlns="http://www.w3.org/2000/svg">
<path d="M17 7.59794L20.5084 3.30969C20.5084 3.30969 26.5179 3.43719 32.5061 6.22094C30.9729 8.53931 27.9299 9.67406 27.9299 9.67406C27.7249 7.63725 26.2979 7.14 21.76 7.14L17.0011 34.0011L12.2092 7.13469C7.70419 7.13469 6.27725 7.633 6.07219 9.66875C6.07219 9.66875 3.02813 8.54569 1.496 6.22625C7.48319 3.4425 13.4937 3.315 13.4937 3.315L17.0021 7.59794H16.9968H17ZM17 2.07506C21.8365 2.03044 27.3764 2.822 33.048 5.30081C33.8066 3.92806 34 3.32563 34 3.32563C27.8024 0.868063 21.9969 0.0223125 17 0C12.0031 0.0223125 6.19756 0.863813 0 3.32563C0 3.32563 0.27625 4.07256 0.952 5.30719C6.62469 2.81669 12.1635 2.0315 17 2.06975V2.07506Z" fill="#909090"/>
</svg>
