<svg width="48" height="34" viewBox="0 0 48 34" fill="none" xmlns="http://www.w3.org/2000/svg">
<g filter="url(#filter0_d_1926_57)">
<path d="M8.22806 17.1464C8.22806 18.641 8.55613 19.7886 8.98492 20.4828C9.54712 21.3921 10.3857 21.7774 11.2405 21.7774C12.3431 21.7774 13.3518 21.5038 15.2957 18.8153C16.853 16.6604 18.688 13.6357 19.9226 11.7395L22.0135 8.52691C23.466 6.29581 25.1471 3.8156 27.0747 2.13445C28.6483 0.762304 30.3458 0 32.0541 0C34.9223 0 37.6543 1.66209 39.7452 4.77937C42.0335 8.1934 43.1443 12.4936 43.1443 16.9313C43.1443 19.5694 42.6243 21.5079 41.7395 23.0393C40.8846 24.5203 39.2184 26 36.4156 26V21.7774C38.8155 21.7774 39.4145 19.5721 39.4145 17.0484C39.4145 13.4519 38.5759 9.46073 36.7287 6.6089C35.4178 4.58607 33.719 3.35005 31.8499 3.35005C29.8285 3.35005 28.2018 4.87466 26.3736 7.59309C25.4017 9.03738 24.4039 10.7975 23.2836 12.7836L22.0503 14.9684C19.5728 19.3612 18.9452 20.3617 17.7065 22.0129C15.5353 24.9042 13.6813 26 11.2405 26C8.34513 26 6.51424 24.7463 5.38031 22.8569C4.45466 21.3173 4 19.2972 4 16.9953L8.22806 17.1464Z" fill="#909090"/>
<path d="M7.33398 5.07749C9.27241 2.08953 12.0698 0 15.2783 0C17.1364 0 18.9836 0.549948 20.9125 2.12492C23.0225 3.84691 25.2713 6.68241 28.0768 11.3556L29.0828 13.0327C31.5113 17.0783 32.8929 19.1597 33.7015 20.1412C34.7415 21.4017 35.4698 21.7774 36.4159 21.7774C38.8158 21.7774 39.4147 19.5721 39.4147 17.0484L43.1446 16.9313C43.1446 19.5694 42.6246 21.5079 41.7397 23.0393C40.8849 24.5203 39.2187 26 36.4159 26C34.6735 26 33.1298 25.6216 31.4228 24.0112C30.1105 22.7752 28.5764 20.5795 27.3962 18.6057L23.8855 12.7414C22.124 9.79832 20.5082 7.60398 19.573 6.61026C18.5671 5.54168 17.2739 4.2512 15.2102 4.2512C13.54 4.2512 12.1215 5.42325 10.9345 7.21602L7.33398 5.07749Z" fill="#909090"/>
<path d="M15.2099 4.2512C13.5397 4.2512 12.1213 5.42325 10.9342 7.21602C9.25581 9.74932 8.22806 13.5227 8.22806 17.1464C8.22806 18.641 8.55613 19.7886 8.98492 20.4828L5.38031 22.8569C4.45466 21.3173 4 19.2972 4 16.9953C4 12.8094 5.1489 8.4466 7.33372 5.07749C9.27215 2.08953 12.0695 0 15.278 0L15.2099 4.2512Z" fill="#909090"/>
</g>
<defs>
<filter id="filter0_d_1926_57" x="0" y="0" width="47.1445" height="34" filterUnits="userSpaceOnUse" color-interpolation-filters="sRGB">
<feFlood flood-opacity="0" result="BackgroundImageFix"/>
<feColorMatrix in="SourceAlpha" type="matrix" values="0 0 0 0 0 0 0 0 0 0 0 0 0 0 0 0 0 0 127 0" result="hardAlpha"/>
<feOffset dy="4"/>
<feGaussianBlur stdDeviation="2"/>
<feComposite in2="hardAlpha" operator="out"/>
<feColorMatrix type="matrix" values="0 0 0 0 0 0 0 0 0 0 0 0 0 0 0 0 0 0 0.25 0"/>
<feBlend mode="normal" in2="BackgroundImageFix" result="effect1_dropShadow_1926_57"/>
<feBlend mode="normal" in="SourceGraphic" in2="effect1_dropShadow_1926_57" result="shape"/>
</filter>
</defs>
</svg>
