<svg width="38" height="29" viewBox="0 0 38 29" fill="none" xmlns="http://www.w3.org/2000/svg">
<path d="M17.5004 3.02403L15.0269 0.97168C5.71511 6.24917 1.3502 12.2596 0.186228 19.0031C-0.686754 24.5738 1.4957 28.9717 7.02458 28.9717C10.953 28.9717 14.7359 26.3329 15.6089 21.935C16.3364 16.8041 13.4264 13.7256 9.78902 12.9926C11.244 8.00833 17.3549 3.02403 17.5004 3.02403ZM30.0131 12.6994C31.6136 7.86174 37.4334 3.02403 37.5789 3.02403L35.1055 0.97168C25.7937 6.24917 21.4288 12.2596 20.2648 19.0031C19.3918 24.5738 21.5743 28.9717 27.1032 28.9717C31.0316 28.9717 34.8145 26.3329 35.542 21.935C36.415 16.8041 33.6505 13.4324 30.0131 12.6994Z" fill="url(#paint0_radial_1820_130)"/>
<defs>
<radialGradient id="paint0_radial_1820_130" cx="0" cy="0" r="1" gradientUnits="userSpaceOnUse" gradientTransform="translate(10.7368 5.77168) rotate(60.9542) scale(26.5376 31.8817)">
<stop stop-color="#63FB06"/>
<stop offset="1" stop-color="#4CC800"/>
</radialGradient>
</defs>
</svg>
