<svg width="45" height="45" viewBox="0 0 45 45" fill="none" xmlns="http://www.w3.org/2000/svg">
<rect x="0.25" y="0.25" width="44.5" height="44.5" rx="9.75" stroke="white" stroke-width="0.5"/>
<path d="M16.725 33H12.2625V18.9563H16.725V33ZM14.4938 16.9875C13.05 16.9875 12 15.9375 12 14.4937C12 13.05 13.1813 12 14.4938 12C15.9375 12 16.9875 13.05 16.9875 14.4937C16.9875 15.9375 15.9375 16.9875 14.4938 16.9875ZM33 33H28.5375V25.3875C28.5375 23.1563 27.6187 22.5 26.3062 22.5C24.9937 22.5 23.6812 23.55 23.6812 25.5187V33H19.2188V18.9563H23.4187V20.925C23.8125 20.0063 25.3875 18.5625 27.6187 18.5625C30.1125 18.5625 32.7375 20.0062 32.7375 24.3375V33H33Z" fill="white"/>
</svg>
