<svg width="38" height="38" viewBox="0 0 38 38" fill="none" xmlns="http://www.w3.org/2000/svg">
<path d="M8.33772 15.4605C9.81432 10.9862 14.0191 7.77273 18.9996 7.77273C21.6768 7.77273 24.095 8.72273 25.995 10.2773L31.5223 4.75C28.1541 1.81364 23.8359 0 18.9996 0C11.5105 0 5.06268 4.27231 1.96289 10.5292L8.33772 15.4605Z" fill="#909090"/>
<path d="M25.3975 28.5199C23.672 29.6342 21.4793 30.2273 18.9997 30.2273C14.0383 30.2273 9.84661 27.0384 8.35489 22.5908L1.95898 27.4471C5.05492 33.7149 11.5026 38 18.9997 38C23.6433 38 28.0806 36.3492 31.4038 33.2494L25.3975 28.5199Z" fill="#909090"/>
<path d="M31.4041 33.2493C34.8795 30.0074 37.1364 25.1808 37.1364 19C37.1364 17.8772 36.9636 16.6681 36.7045 15.5454H19V22.8863H29.1909C28.6881 25.3549 27.3383 27.2669 25.3978 28.5199L31.4041 33.2493Z" fill="#909090"/>
<path d="M8.35522 22.5908C7.97735 21.4641 7.77273 20.2568 7.77273 19C7.77273 17.7622 7.97119 16.5724 8.33815 15.4605L1.96332 10.5292C0.691263 13.079 0 15.9527 0 19C0 22.0393 0.704236 24.9061 1.95932 27.447L8.35522 22.5908Z" fill="#909090"/>
</svg>
