<svg width="17" height="27" viewBox="0 0 17 27" fill="none" xmlns="http://www.w3.org/2000/svg">
<path d="M9.05207 14.3062L0.754208 22.6041C-0.251488 23.6098 -0.251317 25.2401 0.754208 26.2458C1.7599 27.2513 3.3902 27.2513 4.3959 26.2458L15.3209 15.3208C16.3266 14.3153 16.3264 12.6848 15.3209 11.6791L4.3959 0.754144C3.3902 -0.251381 1.7599 -0.251381 0.754208 0.754144C-0.251488 1.75967 -0.251317 3.39014 0.754208 4.39583L9.05207 12.6937C9.49744 13.139 9.49744 13.861 9.05207 14.3062Z" fill="#CBFFCA"/>
<path d="M9.38612 13.5C9.38612 13.7917 9.27473 14.0837 9.05214 14.3063L0.754272 22.6042C-0.251424 23.6097 -0.251424 25.2402 0.754272 26.2459C1.75997 27.2514 3.39026 27.2514 4.39596 26.2459L15.3209 15.3209C15.8237 14.8181 16.0752 14.1591 16.0752 13.5001H9.38612V13.5Z" fill="#CBFFCA"/>
</svg>
