<svg width="17" height="27" viewBox="0 0 17 27" fill="none" xmlns="http://www.w3.org/2000/svg">
<path d="M7.48601 14.3062L15.7839 22.6041C16.7896 23.6098 16.7894 25.2401 15.7839 26.2458C14.7782 27.2513 13.1479 27.2513 12.1422 26.2458L1.2172 15.3208C0.211508 14.3153 0.211678 12.6848 1.2172 11.6791L12.1422 0.754144C13.1479 -0.251381 14.7782 -0.251381 15.7839 0.754144C16.7896 1.75967 16.7894 3.39014 15.7839 4.39583L7.48601 12.6937C7.04065 13.139 7.04065 13.861 7.48601 14.3062Z" fill="#CBFFCA"/>
<path d="M7.15197 13.5C7.15197 13.7917 7.26335 14.0837 7.48595 14.3063L15.7838 22.6042C16.7895 23.6097 16.7895 25.2402 15.7838 26.2459C14.7781 27.2514 13.1478 27.2514 12.1421 26.2459L1.21714 15.3209C0.714337 14.8181 0.462891 14.1591 0.462891 13.5001H7.15197V13.5Z" fill="#CBFFCA"/>
</svg>
