<svg width="40" height="26" viewBox="0 0 40 26" fill="none" xmlns="http://www.w3.org/2000/svg">
<path d="M39.14 15.4135C39.14 16.346 39.14 17.3333 39.14 18.2658C39.14 18.3207 39.14 18.3207 39.14 18.3755C39.14 18.5949 39.14 18.7595 39.0848 18.9789C39.0296 19.5274 38.9192 20.076 38.8088 20.5696C38.588 21.3924 38.3119 22.1603 37.9255 22.8734C37.5943 23.4768 37.1526 24.0253 36.6558 24.4641C36.3798 24.7384 36.0485 24.9578 35.7173 25.1772C35.0549 25.5612 34.3372 25.8354 33.5643 25.9451C33.4539 25.9451 33.3987 25.9451 33.2883 26C32.7363 26 32.129 26 31.577 26C31.5218 26 31.5218 26 31.4666 26C31.2458 25.9451 30.9697 25.9452 30.7489 25.8903C30.1969 25.7806 29.7 25.616 29.2584 25.3418C28.6511 25.0127 28.1543 24.6287 27.6575 24.1899C27.271 23.8059 26.8846 23.4219 26.4982 22.9831C25.9461 22.3249 25.4493 21.6118 24.9524 20.9536C24.2348 19.8565 23.5171 18.7595 22.8547 17.6076C22.0818 16.2911 21.3089 14.9747 20.5361 13.7131C20.3153 13.3291 20.0392 12.9451 19.8184 12.5612C19.8184 12.5612 19.8184 12.5063 19.7632 12.5063C19.708 12.4515 19.708 12.4515 19.6528 12.5063C19.6528 12.5063 19.6528 12.5612 19.5976 12.5612C19.5424 12.6709 19.432 12.8354 19.3768 12.9451C19.0456 13.4937 18.7143 14.097 18.3831 14.6456C17.8311 15.5781 17.3342 16.5105 16.7822 17.3882C16.2853 18.2658 15.7885 19.0886 15.2364 19.9114C14.7396 20.7342 14.1876 21.5021 13.5803 22.27C13.0835 22.8734 12.5866 23.4768 12.0346 23.9705C11.6482 24.3544 11.2065 24.6835 10.7649 24.9578C9.99202 25.4515 9.16395 25.7806 8.28068 25.8903C8.22547 25.8903 8.11506 25.8903 8.05986 25.9451C7.45261 25.9451 6.90056 25.9451 6.29332 25.9451C6.23811 25.9451 6.23811 25.9451 6.18291 25.9451C5.85168 25.8903 5.46525 25.8354 5.13402 25.7257C3.80911 25.3418 2.76023 24.6287 1.93216 23.5865C1.49052 23.038 1.10409 22.3798 0.828068 21.7215C0.496841 20.8987 0.276024 20.0211 0.165615 19.1435C0.110411 18.8143 0.0552058 18.4852 0.0552058 18.1013C0.0552058 17.7722 0 17.443 0 17.1688C0 16.8945 0 16.5654 0 16.2911C0 16.0717 0 15.8523 0 15.6878C0 15.3587 0.0552058 15.0295 0.0552058 14.7004C0.11041 14.2616 0.165614 13.8228 0.220819 13.384C0.386432 12.4515 0.552045 11.519 0.828068 10.6413C1.15929 9.48945 1.54573 8.33755 2.09777 7.29536C2.53941 6.36287 3.03625 5.48523 3.58829 4.66245C4.14034 3.89452 4.69238 3.23629 5.35484 2.57806C5.85168 2.13924 6.34852 1.70042 6.90056 1.37131C7.56302 0.93249 8.28068 0.603374 9.05354 0.383965C9.66079 0.219408 10.3232 0.0548515 10.9857 0.0548515C11.0409 0.0548515 11.0961 0.0548515 11.1513 0.0548515C11.2617 0.0548515 11.3169 0.0548515 11.4273 0.0548515C11.4825 0.0548515 11.5377 0.0548515 11.5929 0.0548515C11.9242 0.0548515 12.2554 0.109702 12.5314 0.164554C13.5803 0.329111 14.574 0.658226 15.4573 1.20675C16.2853 1.70042 17.003 2.24894 17.7206 2.90717C18.1623 3.29114 18.5487 3.72996 18.9351 4.11392C19.3216 4.55274 19.6528 4.93671 19.984 5.37553C20.0944 5.48523 20.0944 5.48523 20.1496 5.37553C20.3153 5.15612 20.5361 4.88186 20.7017 4.66245C21.0881 4.16878 21.4746 3.72996 21.9162 3.23628C22.3026 2.85232 22.6891 2.46835 23.0755 2.08439C23.5171 1.70042 24.014 1.31645 24.566 0.987339C25.1181 0.658225 25.7253 0.383963 26.3326 0.219406C26.7742 0.109701 27.1606 0 27.6023 0C27.9335 0 28.2647 0 28.6511 0C28.9272 0 29.2032 0.0548507 29.5344 0.109703C30.4177 0.27426 31.2458 0.658228 32.0738 1.09705C32.7915 1.53587 33.4539 2.08439 34.0612 2.63291C34.2268 2.79747 34.4476 3.01687 34.6132 3.23628C34.9997 3.6751 35.3309 4.11392 35.6621 4.60759C36.3246 5.59493 36.8766 6.58228 37.3182 7.67933C37.5943 8.2827 37.8151 8.88607 37.9807 9.5443C38.2015 10.2025 38.3671 10.9156 38.5328 11.5738C38.6432 12.1224 38.7536 12.616 38.8088 13.1646C38.864 13.5485 38.9192 13.8776 38.9192 14.2616C38.9744 14.5359 38.9744 14.8101 38.9744 15.0844C39.14 15.3038 39.14 15.3587 39.14 15.4135ZM35.4413 16.8397C35.4413 16.73 35.4413 16.6751 35.4413 16.6203C35.4413 16.2363 35.4413 15.8523 35.3861 15.4684C35.3861 15.1392 35.3309 14.8101 35.2757 14.481C35.2205 13.9873 35.1653 13.4388 35.0549 12.9451C34.834 11.6835 34.5028 10.4219 34.006 9.27004C33.6748 8.44726 33.2883 7.62447 32.7915 6.85654C32.405 6.19831 31.9082 5.64979 31.3562 5.10126C30.9697 4.7173 30.5833 4.38819 30.0865 4.16878C29.3688 3.72996 28.5407 3.51055 27.7127 3.51055C27.4918 3.51055 27.271 3.5654 27.0502 3.5654C26.6086 3.67511 26.1669 3.83966 25.7805 4.05907C25.3389 4.33333 24.9524 4.6076 24.6212 4.93671C24.1244 5.43038 23.6275 5.9789 23.1859 6.52742C22.7995 7.02109 22.4682 7.51477 22.137 8.06329C22.0266 8.22785 22.0266 8.173 22.137 8.33755C22.8547 9.4346 23.5723 10.5316 24.2348 11.6287C24.8972 12.7257 25.5045 13.7679 26.1669 14.865C26.4982 15.4135 26.8294 15.962 27.2158 16.5106C27.7679 17.3333 28.2647 18.1561 28.872 18.9789C29.2584 19.5274 29.7 20.076 30.1417 20.6245C30.3625 20.8987 30.6385 21.1181 30.9697 21.3376C31.301 21.557 31.6322 21.6667 31.9634 21.7215C32.2946 21.7764 32.5707 21.7764 32.9019 21.7215C33.5643 21.6667 34.1164 21.3376 34.5028 20.8439C34.7236 20.5148 34.8893 20.1857 35.0549 19.8017C35.2757 19.1435 35.3861 18.4852 35.3861 17.827C35.3861 17.7173 35.3861 17.6625 35.3861 17.5527C35.4413 17.3882 35.4413 17.1139 35.4413 16.8397ZM4.25075 17.0591C4.25075 17.2236 4.25075 17.3882 4.25075 17.5527C4.25075 17.9367 4.30595 18.3207 4.36116 18.7046C4.41636 19.1435 4.52677 19.5823 4.74759 20.0211C4.9132 20.4051 5.13402 20.789 5.46525 21.1181C5.68607 21.3376 5.96209 21.5021 6.23811 21.6118C6.56934 21.7215 6.84536 21.7764 7.17659 21.8312C7.3422 21.8312 7.50781 21.8312 7.67343 21.8312C8.05986 21.7764 8.39109 21.6667 8.72231 21.5021C9.10875 21.2827 9.38477 21.0633 9.716 20.789C10.0472 20.5148 10.3232 20.1857 10.5441 19.8565C11.0961 19.1983 11.5377 18.5401 12.0346 17.8819C12.6418 17.0042 13.2491 16.0717 13.8011 15.1941C14.1876 14.5907 14.6292 13.9325 15.0156 13.3291C15.4573 12.616 15.9541 11.903 16.3957 11.1899C16.727 10.6413 17.1134 10.0928 17.4446 9.59916C17.555 9.4346 17.555 9.4346 17.4446 9.3249C16.9478 8.61182 16.3957 7.89873 15.8437 7.29536C15.4021 6.80169 14.9604 6.36287 14.5188 5.92405C14.1876 5.64979 13.8563 5.37553 13.4699 5.15612C13.0835 4.93671 12.6418 4.77215 12.145 4.66245C11.8138 4.6076 11.4825 4.55274 11.1513 4.55274C10.8753 4.55274 10.5993 4.6076 10.3232 4.66245C9.8264 4.82701 9.38477 5.04641 8.94313 5.32067C8.5567 5.59494 8.22547 5.8692 7.94945 6.19831C7.67343 6.47257 7.45261 6.80169 7.17659 7.1308C6.67975 7.78903 6.29332 8.50211 5.96209 9.27004C5.52045 10.2574 5.18922 11.2447 4.9132 12.2321C4.74759 12.9451 4.58198 13.7131 4.47157 14.4262C4.41636 14.7553 4.36116 15.1392 4.36116 15.4684C4.36116 15.7426 4.30595 16.0169 4.30595 16.346C4.25075 16.5105 4.25075 16.7848 4.25075 17.0591Z" fill="url(#paint0_linear_2192_249)"/>
<defs>
<linearGradient id="paint0_linear_2192_249" x1="12.2592" y1="21.1782" x2="30.7704" y2="4.78365" gradientUnits="userSpaceOnUse">
<stop stop-color="#0082FB"/>
<stop offset="0.1846" stop-color="#007CF5"/>
<stop offset="0.4402" stop-color="#006AE5"/>
<stop offset="0.5056" stop-color="#0064E0"/>
<stop offset="0.703" stop-color="#006EE9"/>
<stop offset="0.9525" stop-color="#0082FB"/>
</linearGradient>
</defs>
</svg>
