<svg width="20" height="35" viewBox="0 0 20 35" fill="none" xmlns="http://www.w3.org/2000/svg">
<path d="M12.9998 1.02673L12.9864 8.5074L12.9731 15.9881L12.3586 14.2515V14.247L11.5615 30.9004C12.3452 33.109 12.7638 34.289 12.7682 34.2934C12.7727 34.2979 13.218 34.3246 13.7567 34.3513C15.3865 34.4315 17.408 34.6051 18.9442 34.7966C19.3005 34.8411 19.6032 34.8634 19.6255 34.8456C19.6478 34.8278 19.6522 27.2135 19.6478 17.9206L19.6344 1.02673H12.9998Z" fill="#B1060F" stroke="black" stroke-width="0.29074"/>
<path d="M1 1.00445V17.9161C1 27.2179 1.00891 34.8366 1.02226 34.85C1.03562 34.8634 1.61003 34.8055 2.30466 34.7298C2.99929 34.6541 3.95664 34.5561 4.43309 34.516C5.16334 34.4537 7.35411 34.3157 7.60346 34.3112C7.67916 34.3112 7.68361 33.9327 7.69252 27.1467L7.70588 19.9822L8.23576 21.4783C8.31591 21.7099 8.34262 21.7811 8.42277 22.0082L9.21982 5.35927C9.05061 4.88282 9.13967 5.13218 8.9482 4.58894C8.29809 2.74994 7.74595 1.19592 7.72369 1.12468L7.67916 1H1V1.00445Z" fill="#B1060F" stroke="black" stroke-width="0.29074"/>
<path d="M12.9998 1.02673L12.9864 8.5074L12.9731 15.9881L12.3586 14.2515V14.247L11.5615 30.9004C12.3452 33.109 12.7638 34.289 12.7682 34.2934C12.7727 34.2979 13.218 34.3246 13.7567 34.3513C15.3865 34.4315 17.408 34.6051 18.9442 34.7966C19.3005 34.8411 19.6032 34.8634 19.6255 34.8456C19.6478 34.8278 19.6522 27.2135 19.6478 17.9206L19.6344 1.02673H12.9998Z" fill="#B1060F" stroke="black" stroke-width="0.29074"/>
<path d="M1 1.00445V17.9161C1 27.2179 1.00891 34.8366 1.02226 34.85C1.03562 34.8634 1.61003 34.8055 2.30466 34.7298C2.99929 34.6541 3.95664 34.5561 4.43309 34.516C5.16334 34.4537 7.35411 34.3157 7.60346 34.3112C7.67916 34.3112 7.68361 33.9327 7.69252 27.1467L7.70588 19.9822L8.23576 21.4783C8.31591 21.7099 8.34262 21.7811 8.42277 22.0082L9.21982 5.35927C9.05061 4.88282 9.13967 5.13218 8.9482 4.58894C8.29809 2.74994 7.74595 1.19592 7.72369 1.12468L7.67916 1H1V1.00445Z" fill="#B1060F" stroke="black" stroke-width="0.29074"/>
<path d="M1 1.00445V10.4978L7.68807 28.2376C7.68807 27.8324 7.68807 27.6098 7.69252 27.1467L7.70588 19.9822L8.23576 21.4783C11.1746 29.8139 12.7553 34.2845 12.7642 34.2934C12.7687 34.2979 13.214 34.3246 13.7527 34.3513C15.3825 34.4314 17.404 34.6051 18.9402 34.7966C19.2965 34.8411 19.5992 34.8634 19.6215 34.8455C19.6349 34.8322 19.6438 31.1008 19.6438 25.8331L12.9913 6.6951L12.9869 8.50738L12.9735 15.988L12.359 14.2515C11.7579 12.555 11.3572 11.4195 8.9393 4.58894C8.28919 2.74994 7.73705 1.19592 7.71478 1.12468L7.67026 1H1V1.00445Z" fill="url(#paint0_radial_2192_150)"/>
<path d="M1 1.00445L7.70143 19.9955V19.9866L8.23131 21.4828C11.1746 29.8139 12.7553 34.2845 12.7642 34.2934C12.7687 34.2979 13.214 34.3246 13.7528 34.3513C15.3825 34.4314 17.404 34.6051 18.9402 34.7966C19.292 34.8411 19.5992 34.8634 19.6171 34.8455L12.9735 15.9836V15.988L12.359 14.2515C11.7579 12.555 11.3572 11.4195 8.9393 4.58894C8.28919 2.74994 7.73705 1.19592 7.71479 1.12468L7.67026 1H4.33513L1 1.00445Z" fill="#E50914"/>
<defs>
<radialGradient id="paint0_radial_2192_150" cx="0" cy="0" r="1" gradientUnits="userSpaceOnUse" gradientTransform="translate(10.0098 17.7295) rotate(-19.1007) scale(1.22874 45.0103)">
<stop/>
<stop offset="1" stop-opacity="0"/>
</radialGradient>
</defs>
</svg>
