<svg width="60" height="22" viewBox="0 0 60 22" fill="none" xmlns="http://www.w3.org/2000/svg">
<path fill-rule="evenodd" clip-rule="evenodd" d="M7.68569 0.97556C3.78136 5.64685 0.0378426 11.4397 0.000304764 15.7696C-0.0143152 17.3987 0.4962 18.821 1.72072 19.8982C3.48303 21.4497 5.42472 21.9968 7.35694 22C10.1806 22.004 12.9845 20.8434 15.1798 19.9485C18.8771 18.4422 59.7472 0.36045 59.7472 0.36045C60.1415 0.159171 60.0676 -0.0916215 59.5741 0.0335742C59.375 0.0842966 15.0807 12.3136 15.0807 12.3136C14.2416 12.5554 13.3747 12.6818 12.5028 12.6896C9.09869 12.7101 6.06959 10.7851 6.09408 6.72853C6.10357 5.14124 6.5805 3.22707 7.68569 0.97556Z" fill="white"/>
</svg>
